<mxfile host="app.diagrams.net" agent="Mozilla/5.0 (Windows NT 10.0; Win64; x64) AppleWebKit/537.36 (KHTML, like Gecko) Chrome/127.0.0.0 Safari/537.36" version="24.7.7">
  <diagram name="PÃ¡gina-1" id="Bal9dCU0w3vXgrl_aZGy">
    <mxGraphModel dx="3488" dy="734" grid="1" gridSize="10" guides="1" tooltips="1" connect="1" arrows="1" fold="1" page="0" pageScale="1" pageWidth="827" pageHeight="1169" math="0" shadow="0">
      <root>
        <mxCell id="0" />
        <mxCell id="1" parent="0" />
        <mxCell id="ahCMLixp_YzIX2k5nNPd-209" style="edgeStyle=orthogonalEdgeStyle;rounded=0;orthogonalLoop=1;jettySize=auto;html=1;exitX=0.5;exitY=1;exitDx=0;exitDy=0;entryX=0.5;entryY=0;entryDx=0;entryDy=0;" edge="1" source="ahCMLixp_YzIX2k5nNPd-210" parent="1">
          <mxGeometry relative="1" as="geometry">
            <mxPoint x="-1420" y="580" as="targetPoint" />
          </mxGeometry>
        </mxCell>
        <mxCell id="ahCMLixp_YzIX2k5nNPd-210" value="INICIO" style="rounded=1;whiteSpace=wrap;html=1;arcSize=50;" vertex="1" parent="1">
          <mxGeometry x="-1480" y="500" width="120" height="30" as="geometry" />
        </mxCell>
        <mxCell id="ahCMLixp_YzIX2k5nNPd-211" style="edgeStyle=orthogonalEdgeStyle;rounded=0;orthogonalLoop=1;jettySize=auto;html=1;exitX=0.5;exitY=1;exitDx=0;exitDy=0;entryX=0.5;entryY=0;entryDx=0;entryDy=0;" edge="1" source="ahCMLixp_YzIX2k5nNPd-212" target="ahCMLixp_YzIX2k5nNPd-214" parent="1">
          <mxGeometry relative="1" as="geometry" />
        </mxCell>
        <mxCell id="ahCMLixp_YzIX2k5nNPd-212" value="&lt;div&gt;&lt;span style=&quot;background-color: initial;&quot;&gt;string serie&lt;/span&gt;&lt;br&gt;&lt;/div&gt;&lt;div&gt;&lt;div&gt;bool esPrimo&lt;/div&gt;&lt;/div&gt;" style="rounded=0;whiteSpace=wrap;html=1;" vertex="1" parent="1">
          <mxGeometry x="-1480" y="670" width="120" height="60" as="geometry" />
        </mxCell>
        <mxCell id="ahCMLixp_YzIX2k5nNPd-213" style="edgeStyle=orthogonalEdgeStyle;rounded=0;orthogonalLoop=1;jettySize=auto;html=1;exitX=0.5;exitY=1;exitDx=0;exitDy=0;entryX=0.5;entryY=0;entryDx=0;entryDy=0;" edge="1" source="ahCMLixp_YzIX2k5nNPd-214" parent="1">
          <mxGeometry relative="1" as="geometry">
            <mxPoint x="-1420" y="870" as="targetPoint" />
          </mxGeometry>
        </mxCell>
        <mxCell id="ahCMLixp_YzIX2k5nNPd-244" value="i=2" style="edgeLabel;html=1;align=center;verticalAlign=middle;resizable=0;points=[];" vertex="1" connectable="0" parent="ahCMLixp_YzIX2k5nNPd-213">
          <mxGeometry x="0.2747" relative="1" as="geometry">
            <mxPoint as="offset" />
          </mxGeometry>
        </mxCell>
        <mxCell id="ahCMLixp_YzIX2k5nNPd-214" value="&lt;div&gt;&lt;br&gt;&lt;/div&gt;&lt;div&gt;&lt;div&gt;serie = &quot;&quot;&lt;/div&gt;&lt;div&gt;esPrimo = true&lt;br&gt;&lt;div&gt;&lt;br&gt;&lt;/div&gt;&lt;/div&gt;&lt;/div&gt;" style="rounded=0;whiteSpace=wrap;html=1;" vertex="1" parent="1">
          <mxGeometry x="-1480" y="770" width="120" height="60" as="geometry" />
        </mxCell>
        <mxCell id="ahCMLixp_YzIX2k5nNPd-222" style="edgeStyle=orthogonalEdgeStyle;rounded=0;orthogonalLoop=1;jettySize=auto;html=1;exitX=0.5;exitY=1;exitDx=0;exitDy=0;entryX=0.5;entryY=0;entryDx=0;entryDy=0;" edge="1" parent="1" source="ahCMLixp_YzIX2k5nNPd-221" target="ahCMLixp_YzIX2k5nNPd-212">
          <mxGeometry relative="1" as="geometry" />
        </mxCell>
        <mxCell id="ahCMLixp_YzIX2k5nNPd-221" value="&lt;div&gt;int num (parametro)&lt;/div&gt;" style="rounded=0;whiteSpace=wrap;html=1;" vertex="1" parent="1">
          <mxGeometry x="-1480" y="580" width="120" height="40" as="geometry" />
        </mxCell>
        <mxCell id="ahCMLixp_YzIX2k5nNPd-247" style="edgeStyle=orthogonalEdgeStyle;rounded=0;orthogonalLoop=1;jettySize=auto;html=1;exitX=0.5;exitY=1;exitDx=0;exitDy=0;entryX=0.5;entryY=0;entryDx=0;entryDy=0;" edge="1" parent="1" source="ahCMLixp_YzIX2k5nNPd-242" target="ahCMLixp_YzIX2k5nNPd-246">
          <mxGeometry relative="1" as="geometry" />
        </mxCell>
        <mxCell id="ahCMLixp_YzIX2k5nNPd-248" value="V" style="edgeLabel;html=1;align=center;verticalAlign=middle;resizable=0;points=[];" vertex="1" connectable="0" parent="ahCMLixp_YzIX2k5nNPd-247">
          <mxGeometry x="-0.35" y="2" relative="1" as="geometry">
            <mxPoint as="offset" />
          </mxGeometry>
        </mxCell>
        <mxCell id="ahCMLixp_YzIX2k5nNPd-269" style="edgeStyle=orthogonalEdgeStyle;rounded=0;orthogonalLoop=1;jettySize=auto;html=1;exitX=1;exitY=0.5;exitDx=0;exitDy=0;" edge="1" parent="1" source="ahCMLixp_YzIX2k5nNPd-242" target="ahCMLixp_YzIX2k5nNPd-267">
          <mxGeometry relative="1" as="geometry" />
        </mxCell>
        <mxCell id="ahCMLixp_YzIX2k5nNPd-271" value="F" style="edgeLabel;html=1;align=center;verticalAlign=middle;resizable=0;points=[];" vertex="1" connectable="0" parent="ahCMLixp_YzIX2k5nNPd-269">
          <mxGeometry x="-0.0923" y="-2" relative="1" as="geometry">
            <mxPoint as="offset" />
          </mxGeometry>
        </mxCell>
        <mxCell id="ahCMLixp_YzIX2k5nNPd-242" value="i &amp;lt;= num" style="rhombus;whiteSpace=wrap;html=1;" vertex="1" parent="1">
          <mxGeometry x="-1460" y="870" width="80" height="80" as="geometry" />
        </mxCell>
        <mxCell id="ahCMLixp_YzIX2k5nNPd-250" style="edgeStyle=orthogonalEdgeStyle;rounded=0;orthogonalLoop=1;jettySize=auto;html=1;exitX=1;exitY=0.5;exitDx=0;exitDy=0;entryX=0.5;entryY=0;entryDx=0;entryDy=0;" edge="1" parent="1" source="ahCMLixp_YzIX2k5nNPd-246" target="ahCMLixp_YzIX2k5nNPd-249">
          <mxGeometry relative="1" as="geometry">
            <Array as="points">
              <mxPoint x="-1270" y="1015" />
            </Array>
          </mxGeometry>
        </mxCell>
        <mxCell id="ahCMLixp_YzIX2k5nNPd-251" value="j=2" style="edgeLabel;html=1;align=center;verticalAlign=middle;resizable=0;points=[];" vertex="1" connectable="0" parent="ahCMLixp_YzIX2k5nNPd-250">
          <mxGeometry x="-0.0492" y="4" relative="1" as="geometry">
            <mxPoint as="offset" />
          </mxGeometry>
        </mxCell>
        <mxCell id="ahCMLixp_YzIX2k5nNPd-246" value="&lt;div&gt;&lt;br&gt;&lt;/div&gt;&lt;div&gt;&lt;div&gt;&lt;span style=&quot;background-color: initial;&quot;&gt;esPrimo = true&lt;/span&gt;&lt;br&gt;&lt;/div&gt;&lt;div&gt;&lt;div&gt;&lt;br&gt;&lt;/div&gt;&lt;/div&gt;&lt;/div&gt;" style="rounded=0;whiteSpace=wrap;html=1;" vertex="1" parent="1">
          <mxGeometry x="-1480" y="990" width="120" height="50" as="geometry" />
        </mxCell>
        <mxCell id="ahCMLixp_YzIX2k5nNPd-273" style="edgeStyle=orthogonalEdgeStyle;rounded=0;orthogonalLoop=1;jettySize=auto;html=1;exitX=0;exitY=0.5;exitDx=0;exitDy=0;entryX=1;entryY=0.5;entryDx=0;entryDy=0;" edge="1" parent="1" source="ahCMLixp_YzIX2k5nNPd-249" target="ahCMLixp_YzIX2k5nNPd-272">
          <mxGeometry relative="1" as="geometry" />
        </mxCell>
        <mxCell id="ahCMLixp_YzIX2k5nNPd-274" value="F" style="edgeLabel;html=1;align=center;verticalAlign=middle;resizable=0;points=[];" vertex="1" connectable="0" parent="ahCMLixp_YzIX2k5nNPd-273">
          <mxGeometry x="-0.1115" y="4" relative="1" as="geometry">
            <mxPoint as="offset" />
          </mxGeometry>
        </mxCell>
        <mxCell id="ahCMLixp_YzIX2k5nNPd-249" value="j &amp;lt;= sqrt(i)" style="rhombus;whiteSpace=wrap;html=1;" vertex="1" parent="1">
          <mxGeometry x="-1310" y="1090" width="80" height="80" as="geometry" />
        </mxCell>
        <mxCell id="ahCMLixp_YzIX2k5nNPd-258" style="edgeStyle=orthogonalEdgeStyle;rounded=0;orthogonalLoop=1;jettySize=auto;html=1;exitX=1;exitY=0.5;exitDx=0;exitDy=0;entryX=0;entryY=0.5;entryDx=0;entryDy=0;" edge="1" parent="1" source="ahCMLixp_YzIX2k5nNPd-254" target="ahCMLixp_YzIX2k5nNPd-257">
          <mxGeometry relative="1" as="geometry">
            <Array as="points">
              <mxPoint x="-1270" y="1260" />
              <mxPoint x="-1270" y="1355" />
            </Array>
          </mxGeometry>
        </mxCell>
        <mxCell id="ahCMLixp_YzIX2k5nNPd-259" value="V" style="edgeLabel;html=1;align=center;verticalAlign=middle;resizable=0;points=[];" vertex="1" connectable="0" parent="ahCMLixp_YzIX2k5nNPd-258">
          <mxGeometry x="-0.0291" y="2" relative="1" as="geometry">
            <mxPoint as="offset" />
          </mxGeometry>
        </mxCell>
        <mxCell id="ahCMLixp_YzIX2k5nNPd-284" style="edgeStyle=orthogonalEdgeStyle;rounded=0;orthogonalLoop=1;jettySize=auto;html=1;exitX=1;exitY=0.5;exitDx=0;exitDy=0;entryX=0.5;entryY=1;entryDx=0;entryDy=0;" edge="1" parent="1" source="ahCMLixp_YzIX2k5nNPd-254" target="ahCMLixp_YzIX2k5nNPd-283">
          <mxGeometry relative="1" as="geometry" />
        </mxCell>
        <mxCell id="ahCMLixp_YzIX2k5nNPd-286" value="F" style="edgeLabel;html=1;align=center;verticalAlign=middle;resizable=0;points=[];" vertex="1" connectable="0" parent="ahCMLixp_YzIX2k5nNPd-284">
          <mxGeometry x="-0.0962" relative="1" as="geometry">
            <mxPoint as="offset" />
          </mxGeometry>
        </mxCell>
        <mxCell id="ahCMLixp_YzIX2k5nNPd-254" value="i % j = 0" style="rhombus;whiteSpace=wrap;html=1;" vertex="1" parent="1">
          <mxGeometry x="-1310" y="1220" width="80" height="80" as="geometry" />
        </mxCell>
        <mxCell id="ahCMLixp_YzIX2k5nNPd-255" style="edgeStyle=orthogonalEdgeStyle;rounded=0;orthogonalLoop=1;jettySize=auto;html=1;exitX=0.5;exitY=1;exitDx=0;exitDy=0;entryX=0.508;entryY=0.066;entryDx=0;entryDy=0;entryPerimeter=0;" edge="1" parent="1" source="ahCMLixp_YzIX2k5nNPd-249" target="ahCMLixp_YzIX2k5nNPd-254">
          <mxGeometry relative="1" as="geometry" />
        </mxCell>
        <mxCell id="ahCMLixp_YzIX2k5nNPd-256" value="V" style="edgeLabel;html=1;align=center;verticalAlign=middle;resizable=0;points=[];" vertex="1" connectable="0" parent="ahCMLixp_YzIX2k5nNPd-255">
          <mxGeometry x="-0.2596" y="1" relative="1" as="geometry">
            <mxPoint as="offset" />
          </mxGeometry>
        </mxCell>
        <mxCell id="ahCMLixp_YzIX2k5nNPd-257" value="&lt;div&gt;&lt;br&gt;&lt;/div&gt;&lt;div&gt;&lt;div&gt;&lt;span style=&quot;background-color: initial;&quot;&gt;esPrimo = false&lt;/span&gt;&lt;/div&gt;&lt;div&gt;&lt;div&gt;&lt;br&gt;&lt;/div&gt;&lt;/div&gt;&lt;/div&gt;" style="rounded=0;whiteSpace=wrap;html=1;" vertex="1" parent="1">
          <mxGeometry x="-1190" y="1330" width="120" height="50" as="geometry" />
        </mxCell>
        <mxCell id="ahCMLixp_YzIX2k5nNPd-270" style="edgeStyle=orthogonalEdgeStyle;rounded=0;orthogonalLoop=1;jettySize=auto;html=1;exitX=1;exitY=0.5;exitDx=0;exitDy=0;" edge="1" parent="1" source="ahCMLixp_YzIX2k5nNPd-267" target="ahCMLixp_YzIX2k5nNPd-268">
          <mxGeometry relative="1" as="geometry" />
        </mxCell>
        <mxCell id="ahCMLixp_YzIX2k5nNPd-267" value="serie" style="shape=parallelogram;perimeter=parallelogramPerimeter;whiteSpace=wrap;html=1;fixedSize=1;strokeWidth=2;" vertex="1" parent="1">
          <mxGeometry x="-1270" y="880" width="120" height="60" as="geometry" />
        </mxCell>
        <mxCell id="ahCMLixp_YzIX2k5nNPd-268" value="FIN" style="rounded=1;whiteSpace=wrap;html=1;arcSize=50;" vertex="1" parent="1">
          <mxGeometry x="-1090" y="895" width="120" height="30" as="geometry" />
        </mxCell>
        <mxCell id="ahCMLixp_YzIX2k5nNPd-276" style="edgeStyle=orthogonalEdgeStyle;rounded=0;orthogonalLoop=1;jettySize=auto;html=1;exitX=0.5;exitY=1;exitDx=0;exitDy=0;" edge="1" parent="1" source="ahCMLixp_YzIX2k5nNPd-272" target="ahCMLixp_YzIX2k5nNPd-275">
          <mxGeometry relative="1" as="geometry" />
        </mxCell>
        <mxCell id="ahCMLixp_YzIX2k5nNPd-277" value="V" style="edgeLabel;html=1;align=center;verticalAlign=middle;resizable=0;points=[];" vertex="1" connectable="0" parent="ahCMLixp_YzIX2k5nNPd-276">
          <mxGeometry x="-0.1108" y="1" relative="1" as="geometry">
            <mxPoint as="offset" />
          </mxGeometry>
        </mxCell>
        <mxCell id="ahCMLixp_YzIX2k5nNPd-279" style="edgeStyle=orthogonalEdgeStyle;rounded=0;orthogonalLoop=1;jettySize=auto;html=1;exitX=0;exitY=0.5;exitDx=0;exitDy=0;entryX=0.5;entryY=1;entryDx=0;entryDy=0;" edge="1" parent="1" source="ahCMLixp_YzIX2k5nNPd-272" target="ahCMLixp_YzIX2k5nNPd-278">
          <mxGeometry relative="1" as="geometry" />
        </mxCell>
        <mxCell id="ahCMLixp_YzIX2k5nNPd-280" value="F" style="edgeLabel;html=1;align=center;verticalAlign=middle;resizable=0;points=[];" vertex="1" connectable="0" parent="ahCMLixp_YzIX2k5nNPd-279">
          <mxGeometry x="-0.3575" y="1" relative="1" as="geometry">
            <mxPoint as="offset" />
          </mxGeometry>
        </mxCell>
        <mxCell id="ahCMLixp_YzIX2k5nNPd-272" value="esPrimo &amp;amp;&amp;amp; i&amp;gt;1" style="rhombus;whiteSpace=wrap;html=1;" vertex="1" parent="1">
          <mxGeometry x="-1470" y="1090" width="80" height="80" as="geometry" />
        </mxCell>
        <mxCell id="ahCMLixp_YzIX2k5nNPd-281" style="edgeStyle=orthogonalEdgeStyle;rounded=0;orthogonalLoop=1;jettySize=auto;html=1;exitX=0;exitY=0.5;exitDx=0;exitDy=0;entryX=0;entryY=0.667;entryDx=0;entryDy=0;entryPerimeter=0;" edge="1" parent="1" source="ahCMLixp_YzIX2k5nNPd-275" target="ahCMLixp_YzIX2k5nNPd-278">
          <mxGeometry relative="1" as="geometry">
            <mxPoint x="-1590" y="1130" as="targetPoint" />
          </mxGeometry>
        </mxCell>
        <mxCell id="ahCMLixp_YzIX2k5nNPd-275" value="&lt;div&gt;&lt;span style=&quot;background-color: initial;&quot;&gt;serie += i + &quot;-&quot;&lt;/span&gt;&lt;br&gt;&lt;/div&gt;" style="rounded=0;whiteSpace=wrap;html=1;" vertex="1" parent="1">
          <mxGeometry x="-1590" y="1220" width="120" height="50" as="geometry" />
        </mxCell>
        <mxCell id="ahCMLixp_YzIX2k5nNPd-282" style="edgeStyle=orthogonalEdgeStyle;rounded=0;orthogonalLoop=1;jettySize=auto;html=1;exitX=0.5;exitY=0;exitDx=0;exitDy=0;entryX=0;entryY=0.5;entryDx=0;entryDy=0;" edge="1" parent="1" source="ahCMLixp_YzIX2k5nNPd-278" target="ahCMLixp_YzIX2k5nNPd-242">
          <mxGeometry relative="1" as="geometry" />
        </mxCell>
        <mxCell id="ahCMLixp_YzIX2k5nNPd-278" value="" style="ellipse;whiteSpace=wrap;html=1;aspect=fixed;" vertex="1" parent="1">
          <mxGeometry x="-1610" y="1020" width="45" height="45" as="geometry" />
        </mxCell>
        <mxCell id="ahCMLixp_YzIX2k5nNPd-287" style="edgeStyle=orthogonalEdgeStyle;rounded=0;orthogonalLoop=1;jettySize=auto;html=1;exitX=0.5;exitY=0;exitDx=0;exitDy=0;entryX=1;entryY=0.5;entryDx=0;entryDy=0;" edge="1" parent="1" source="ahCMLixp_YzIX2k5nNPd-283" target="ahCMLixp_YzIX2k5nNPd-249">
          <mxGeometry relative="1" as="geometry" />
        </mxCell>
        <mxCell id="ahCMLixp_YzIX2k5nNPd-283" value="" style="ellipse;whiteSpace=wrap;html=1;aspect=fixed;" vertex="1" parent="1">
          <mxGeometry x="-1170" y="1160" width="45" height="45" as="geometry" />
        </mxCell>
        <mxCell id="ahCMLixp_YzIX2k5nNPd-288" style="edgeStyle=orthogonalEdgeStyle;rounded=0;orthogonalLoop=1;jettySize=auto;html=1;exitX=0.5;exitY=1;exitDx=0;exitDy=0;entryX=0.681;entryY=0.759;entryDx=0;entryDy=0;entryPerimeter=0;" edge="1" parent="1" source="ahCMLixp_YzIX2k5nNPd-257" target="ahCMLixp_YzIX2k5nNPd-272">
          <mxGeometry relative="1" as="geometry" />
        </mxCell>
      </root>
    </mxGraphModel>
  </diagram>
</mxfile>
